<?xml version="1.0" encoding="UTF-8" standalone="no"?>
<!-- Created with Inkscape (http://www.inkscape.org/) -->

<svg
   xmlns:dc="http://purl.org/dc/elements/1.1/"
   xmlns:cc="http://creativecommons.org/ns#"
   xmlns:rdf="http://www.w3.org/1999/02/22-rdf-syntax-ns#"
   xmlns:svg="http://www.w3.org/2000/svg"
   xmlns="http://www.w3.org/2000/svg"
   xmlns:sodipodi="http://sodipodi.sourceforge.net/DTD/sodipodi-0.dtd"
   xmlns:inkscape="http://www.inkscape.org/namespaces/inkscape"
   width="680.11633mm"
   height="1196.2543mm"
   viewBox="0 0 2409.861 4238.6962"
   id="svg2"
   version="1.1"
   inkscape:version="0.91 r"
   sodipodi:docname="kicker_carpet.svg">
  <defs
     id="defs4" />
  <sodipodi:namedview
     id="base"
     pagecolor="#ffffff"
     bordercolor="#666666"
     borderopacity="1.0"
     inkscape:pageopacity="0.0"
     inkscape:pageshadow="2"
     inkscape:zoom="0.24748737"
     inkscape:cx="1195.8433"
     inkscape:cy="2278.6965"
     inkscape:document-units="px"
     inkscape:current-layer="layer2"
     showgrid="false"
     inkscape:snap-page="true"
     inkscape:snap-bbox="true"
     inkscape:bbox-paths="true"
     inkscape:bbox-nodes="true"
     inkscape:window-width="1920"
     inkscape:window-height="1025"
     inkscape:window-x="0"
     inkscape:window-y="36"
     inkscape:window-maximized="1"
     fit-margin-top="0"
     fit-margin-left="0"
     fit-margin-right="0"
     fit-margin-bottom="0" />
  <metadata
     id="metadata7">
    <rdf:RDF>
      <cc:Work
         rdf:about="">
        <dc:format>image/svg+xml</dc:format>
        <dc:type
           rdf:resource="http://purl.org/dc/dcmitype/StillImage" />
        <dc:title></dc:title>
      </cc:Work>
    </rdf:RDF>
  </metadata>
  <g
     inkscape:groupmode="layer"
     id="layer2"
     inkscape:label="Ebene 2"
     style="display:inline"
     transform="translate(-928.10195,914.82944)">
    <rect
       style="color:#000000;clip-rule:nonzero;display:inline;overflow:visible;visibility:visible;opacity:1;isolation:auto;mix-blend-mode:normal;color-interpolation:sRGB;color-interpolation-filters:linearRGB;solid-color:#000000;solid-opacity:1;fill:#008000;fill-opacity:1;fill-rule:nonzero;stroke:#cccccc;stroke-width:1.18153358;stroke-linecap:butt;stroke-linejoin:miter;stroke-miterlimit:4;stroke-dasharray:none;stroke-dashoffset:0;stroke-opacity:1;color-rendering:auto;image-rendering:auto;shape-rendering:auto;text-rendering:auto;enable-background:accumulate"
       id="rect4202"
       width="4237.5146"
       height="2408.6794"
       x="-3323.2759"
       y="928.69275"
       transform="matrix(0,-1,1,0,0,0)" />
    <path
       style="color:#000000;font-style:normal;font-variant:normal;font-weight:normal;font-stretch:normal;font-size:medium;line-height:normal;font-family:sans-serif;text-indent:0;text-align:start;text-decoration:none;text-decoration-line:none;text-decoration-style:solid;text-decoration-color:#000000;letter-spacing:normal;word-spacing:normal;text-transform:none;direction:ltr;block-progression:tb;writing-mode:lr-tb;baseline-shift:baseline;text-anchor:start;white-space:normal;clip-rule:nonzero;display:inline;overflow:visible;visibility:visible;opacity:1;isolation:auto;mix-blend-mode:normal;color-interpolation:sRGB;color-interpolation-filters:linearRGB;solid-color:#000000;solid-opacity:1;fill:#ffffff;fill-opacity:1;fill-rule:evenodd;stroke:none;stroke-width:35.14923859;stroke-linecap:butt;stroke-linejoin:miter;stroke-miterlimit:4;stroke-dasharray:none;stroke-dashoffset:0;stroke-opacity:1;color-rendering:auto;image-rendering:auto;shape-rendering:auto;text-rendering:auto;enable-background:accumulate"
       d="m 928.51375,1231.7854 835.93745,0 c 10.515,194.4391 171.7462,349.1191 368.7871,349.1191 197.0409,0 358.2722,-154.68 368.7871,-349.1191 l 835.9375,0 0,-35.1504 -835.6875,0 c -7.8479,-196.91554 -170.2131,-354.40634 -369.0371,-354.40634 -198.824,0 -361.1891,157.4908 -369.0371,354.40634 l -835.68745,0 0,35.1504 z m 861.76955,-35.1504 c 7.8053,-182.7989 158.2173,-328.34574 342.955,-328.34574 184.7377,0 335.148,145.54684 342.9531,328.34574 l -685.9081,0 z m 0.2656,35.1504 685.3769,0 c -10.4483,180.3104 -159.7343,323.0605 -342.6875,323.0605 -182.9531,0 -332.2409,-142.7501 -342.6894,-323.0605 z"
       id="path4208"
       inkscape:connector-curvature="0" />
    <path
       style="color:#000000;font-style:normal;font-variant:normal;font-weight:normal;font-stretch:normal;font-size:medium;line-height:normal;font-family:sans-serif;text-indent:0;text-align:start;text-decoration:none;text-decoration-line:none;text-decoration-style:solid;text-decoration-color:#000000;letter-spacing:normal;word-spacing:normal;text-transform:none;direction:ltr;block-progression:tb;writing-mode:lr-tb;baseline-shift:baseline;text-anchor:start;white-space:normal;clip-rule:nonzero;display:inline;overflow:visible;visibility:visible;opacity:1;isolation:auto;mix-blend-mode:normal;color-interpolation:sRGB;color-interpolation-filters:linearRGB;solid-color:#000000;solid-opacity:1;fill:#ffffff;fill-opacity:1;fill-rule:evenodd;stroke:none;stroke-width:33.29334641;stroke-linecap:butt;stroke-linejoin:miter;stroke-miterlimit:4;stroke-dasharray:none;stroke-dashoffset:0;stroke-opacity:1;color-rendering:auto;image-rendering:auto;shape-rendering:auto;text-rendering:auto;enable-background:accumulate"
       d="m 1381.7227,26.756063 33.5176,0 411.5371,0 c 77.082,80.922697 188.7935,127.370097 306.4492,127.464797 l 0.01,0 0.012,0 c 117.6792,-0.0773 229.4203,-46.5258 306.5176,-127.464797 l 429.4863,0 20.8867,0 0,-941.173903 -33.5156,0 0,907.8790031 -1441.3828,0 0,-907.8790031 -33.5176,0 0,941.173903 z m 239.4727,-472.752003 19.1875,0 14.584,0 956.1777,0 19.1875,0 14.5859,0 0,-468.4219 -33.7734,0 0,435.129 -956.1777,0 0,-435.129 -33.7715,0 0,468.4219 z m 244.9668,472.752003 534.2167,0 C 2329.9537,90.260763 2234.0816,126.80576 2133.25,126.87716 l -0.01,0 -0.012,0 C 2032.4192,126.79086 1936.5722,90.246863 1866.1622,26.756063 Z"
       id="path4210"
       inkscape:connector-curvature="0" />
    <path
       id="path4316"
       d="m 1381.7227,2382.6927 33.5176,0 411.5371,0 c 77.082,-80.9226 188.7935,-127.37 306.4492,-127.4647 l 0.01,0 0.012,0 c 117.6792,0.077 229.4203,46.5258 306.5176,127.4647 l 429.4863,0 20.8867,0 0,941.1739 -33.5156,0 0,-907.879 -1441.3828,0 0,907.879 -33.5176,0 0,-941.1739 z m 239.4727,472.752 19.1875,0 14.584,0 956.1777,0 19.1875,0 14.5859,0 0,468.4219 -33.7734,0 0,-435.129 -956.1777,0 0,435.129 -33.7715,0 0,-468.4219 z m 244.9668,-472.752 534.2167,0 c -70.4252,-63.5046 -166.2973,-100.0496 -267.1289,-100.121 l -0.01,0 -0.012,0 c -100.8093,0.086 -196.6563,36.6303 -267.0663,100.121 z"
       style="color:#000000;font-style:normal;font-variant:normal;font-weight:normal;font-stretch:normal;font-size:medium;line-height:normal;font-family:sans-serif;text-indent:0;text-align:start;text-decoration:none;text-decoration-line:none;text-decoration-style:solid;text-decoration-color:#000000;letter-spacing:normal;word-spacing:normal;text-transform:none;direction:ltr;block-progression:tb;writing-mode:lr-tb;baseline-shift:baseline;text-anchor:start;white-space:normal;clip-rule:nonzero;display:inline;overflow:visible;visibility:visible;opacity:1;isolation:auto;mix-blend-mode:normal;color-interpolation:sRGB;color-interpolation-filters:linearRGB;solid-color:#000000;solid-opacity:1;fill:#ffffff;fill-opacity:1;fill-rule:evenodd;stroke:none;stroke-width:33.29334641;stroke-linecap:butt;stroke-linejoin:miter;stroke-miterlimit:4;stroke-dasharray:none;stroke-dashoffset:0;stroke-opacity:1;color-rendering:auto;image-rendering:auto;shape-rendering:auto;text-rendering:auto;enable-background:accumulate"
       inkscape:connector-curvature="0" />
  </g>
</svg>
